<svg id="Layer_1" data-name="Layer 1" xmlns="http://www.w3.org/2000/svg" viewBox="0 0 726 244"><defs><style>.cls-1{fill:#e00;}</style></defs><title>Logo-Red_Hat-Consulting-A-Standard-RGB</title><metadata><?xpacket begin="﻿" id="W5M0MpCehiHzreSzNTczkc9d"?>
<x:xmpmeta xmlns:x="adobe:ns:meta/" x:xmptk="Adobe XMP Core 8.0-c001 1.000000, 0000/00/00-00:00:00        ">
   <rdf:RDF xmlns:rdf="http://www.w3.org/1999/02/22-rdf-syntax-ns#">
      <rdf:Description rdf:about=""
            xmlns:xmp="http://ns.adobe.com/xap/1.0/"
            xmlns:dc="http://purl.org/dc/elements/1.1/"
            xmlns:cq="http://www.day.com/jcr/cq/1.0"
            xmlns:tiff="http://ns.adobe.com/tiff/1.0/"
            xmlns:xmpRights="http://ns.adobe.com/xap/1.0/rights/">
         <xmp:rhcc-effective-on>2024-03-03T22:32:09.614Z</xmp:rhcc-effective-on>
         <xmp:rhcc-metadata-complete-moderator>pending</xmp:rhcc-metadata-complete-moderator>
         <xmp:rhcc-translation-id>TRA5aa285b4-9478-4587-b2f3-5ffab225acfc</xmp:rhcc-translation-id>
         <xmp:brand-content-type>Logo</xmp:brand-content-type>
         <xmp:CreateDate>2024-03-03T22:32:09.614Z</xmp:CreateDate>
         <xmp:rhcc-effective-on-set-on-upload>true</xmp:rhcc-effective-on-set-on-upload>
         <xmp:brand-color-mode>RGB</xmp:brand-color-mode>
         <xmp:brand-logo-version>Two line</xmp:brand-logo-version>
         <xmp:rhcc-metadata-complete-uploader>pending</xmp:rhcc-metadata-complete-uploader>
         <xmp:rhcc-file-last-modified>2024-07-12T18:23:49.767Z</xmp:rhcc-file-last-modified>
         <xmp:rhcc-audience>rhcc-audience:internal</xmp:rhcc-audience>
         <xmp:rhcc-rights-restricted>no</xmp:rhcc-rights-restricted>
         <xmp:brand-content-subtype>Product logos</xmp:brand-content-subtype>
         <xmp:rhcc-derivative-id>DER5aa285b4-9478-4587-b2f3-5ffab225acfc</xmp:rhcc-derivative-id>
         <xmp:rhcc-uploaded-by>pmeilleu@redhat.com</xmp:rhcc-uploaded-by>
         <xmp:brand-logo-color>Standard</xmp:brand-logo-color>
         <xmp:rhcc-notify-portal-subscribers-on-change>yes</xmp:rhcc-notify-portal-subscribers-on-change>
         <dc:format>image/svg+xml</dc:format>
         <dc:modified>2024-10-02T19:38:21.664Z</dc:modified>
         <dc:title>
            <rdf:Alt>
               <rdf:li xml:lang="x-default">Logo-Red_Hat-Consulting-A-Standard-RGB</rdf:li>
            </rdf:Alt>
         </dc:title>
         <cq:lastReplicationAction_scene7>Activate</cq:lastReplicationAction_scene7>
         <cq:lastReplicationAction_publish>Activate</cq:lastReplicationAction_publish>
         <cq:lastReplicated_publish>2024-10-02T19:38:23.620Z</cq:lastReplicated_publish>
         <cq:lastReplicatedBy>workflow-process-service</cq:lastReplicatedBy>
         <cq:lastReplicationAction>Activate</cq:lastReplicationAction>
         <cq:lastReplicatedBy_publish>workflow-process-service</cq:lastReplicatedBy_publish>
         <cq:isDelivered>false</cq:isDelivered>
         <cq:lastReplicated>2024-10-02T19:38:23.620Z</cq:lastReplicated>
         <cq:lastReplicatedBy_scene7>workflow-process-service</cq:lastReplicatedBy_scene7>
         <cq:lastReplicated_scene7>2024-10-02T19:38:23.620Z</cq:lastReplicated_scene7>
         <tiff:ImageLength>244</tiff:ImageLength>
         <tiff:ImageWidth>726</tiff:ImageWidth>
         <xmpRights:UsageTerms>
            <rdf:Alt>
               <rdf:li xml:lang="x-default">We only create logos for products, not for components, features, plug-ins, or operators. When referring to something that's not a product, type out the name in our font instead.&#xA;&#xA;Learn more about product logos.</rdf:li>
            </rdf:Alt>
         </xmpRights:UsageTerms>
      </rdf:Description>
   </rdf:RDF>
</x:xmpmeta>
                                                                                                    
                                                                                                    
                                                                                                    
                                                                                                    
                                                                                                    
                                                                                                    
                                                                                                    
                                                                                                    
                                                                                                    
                                                                                                    
                              
<?xpacket end="w"?></metadata>
<path d="M284.65,199.82l7.17,7.28a40,40,0,0,1-29.12,12.58c-21.53,0-38.17-16.53-38.17-37.54s16.64-37.55,38.17-37.55c11.44,0,22.47,4.79,29.33,12.59l-7.28,7.48a28.94,28.94,0,0,0-22.05-10c-15.39,0-27,11.86-27,27.46s11.75,27.45,27.35,27.45A28.26,28.26,0,0,0,284.65,199.82Z"/><path d="M324.37,164.56A27.51,27.51,0,1,1,296.81,192,27.17,27.17,0,0,1,324.37,164.56ZM341.64,192c0-10.3-7.7-18.31-17.27-18.31S307,181.72,307,192s7.6,18.41,17.37,18.41C333.94,210.43,341.64,202.31,341.64,192Z"/><path d="M361.71,165.6h10.4v5.3A21.8,21.8,0,0,1,388,164.56c12.17,0,20.7,8.42,20.7,20.7v33.28h-10.4V187c0-8.32-5.1-13.42-13.11-13.42a15,15,0,0,0-13.1,6.86v38.07h-10.4Z"/><path d="M421.3,204.81c5.51,4.37,11.33,6.66,17.26,6.66,7.49,0,12.69-3.23,12.69-7.91,0-3.74-2.7-5.93-8.53-6.76l-9.56-1.35c-10.51-1.56-15.81-6.45-15.81-14.66,0-9.57,8.32-16,20.69-16a36.26,36.26,0,0,1,21.32,6.76l-5.3,6.86c-5.82-3.85-11.13-5.51-16.74-5.51-6.35,0-10.61,2.91-10.61,7.18,0,3.85,2.49,5.72,8.73,6.65l9.57,1.36c10.51,1.56,16,6.55,16,14.76,0,9.47-9.57,16.64-22.15,16.64-9.16,0-17.37-2.7-23.2-7.8Z"/><path d="M479.23,197c0,8.32,5.09,13.52,13.1,13.52a14.87,14.87,0,0,0,13-7v-38h10.4v52.94h-10.4v-5.31a21.63,21.63,0,0,1-15.91,6.35c-12.17,0-20.59-8.53-20.59-20.8V165.6h10.4Z"/><path d="M538.4,218.54H528v-72.8l10.4-2.29Z"/><path d="M557.53,174.34H546.3V165.6h11.23V152.08l10.3-2.5v16h15.6v8.74h-15.6V203c0,5.41,2.18,7.39,7.8,7.39a20.55,20.55,0,0,0,7.59-1.25v8.73a34.26,34.26,0,0,1-9.88,1.56c-10.29,0-15.81-4.88-15.81-14Z"/><path d="M590,150.62a6.39,6.39,0,0,1,6.35-6.44,6.45,6.45,0,0,1,0,12.89A6.39,6.39,0,0,1,590,150.62Zm11.55,67.92h-10.4V165.6h10.4Z"/><path d="M613.8,165.6h10.4v5.3a21.78,21.78,0,0,1,15.91-6.34c12.17,0,20.7,8.42,20.7,20.7v33.28h-10.4V187c0-8.32-5.1-13.42-13.11-13.42a15,15,0,0,0-13.1,6.86v38.07H613.8Z"/><path d="M670.37,191.81c0-15.19,11.75-27.15,26.83-27.15A26,26,0,0,1,712.91,170V165.6h10.3v53.67c0,13.73-8.64,21.42-24.24,21.42a44.89,44.89,0,0,1-21.32-5.2l4.06-8.11c6,3.12,11.33,4.58,16.95,4.58,9.26,0,14.14-4.37,14.14-12.69v-5.93A24.87,24.87,0,0,1,697,219C682.12,219,670.37,207,670.37,191.81Zm27.87,18.1c6,0,11.13-2.19,14.56-6.14V179.85a19.07,19.07,0,0,0-14.56-6.14c-10,0-17.68,7.91-17.68,18.1S688.26,209.91,698.24,209.91Z"/><path class="cls-1" d="M128,84c12.51,0,30.61-2.58,30.61-17.46a14,14,0,0,0-.31-3.42l-7.45-32.36c-1.72-7.12-3.23-10.35-15.73-16.6C125.39,9.19,104.26,1,98,1c-5.82,0-7.55,7.54-14.45,7.54-6.68,0-11.64-5.6-17.89-5.6-6,0-9.91,4.09-12.93,12.5,0,0-8.41,23.72-9.49,27.16A6.43,6.43,0,0,0,43,44.54C43,53.76,79.33,84,128,84m32.55-11.42c1.73,8.19,1.73,9.05,1.73,10.13,0,14-15.74,21.77-36.43,21.77C79,104.47,38.08,77.1,38.08,59a18.45,18.45,0,0,1,1.51-7.33C22.77,52.52,1,55.54,1,74.72,1,106.2,75.59,145,134.65,145c45.28,0,56.7-20.48,56.7-36.65,0-12.72-11-27.16-30.83-35.78"/><path d="M160.52,72.57c1.73,8.19,1.73,9.05,1.73,10.13,0,14-15.74,21.77-36.43,21.77C79,104.47,38.08,77.1,38.08,59a18.45,18.45,0,0,1,1.51-7.33l3.66-9.06A6.43,6.43,0,0,0,43,44.54C43,53.76,79.33,84,128,84c12.51,0,30.61-2.58,30.61-17.46a14,14,0,0,0-.31-3.42Z"/><path d="M580.24,93.3c0,11.89,7.15,17.67,20.19,17.67a52.11,52.11,0,0,0,11.89-1.68V95.51a24.84,24.84,0,0,1-7.68,1.16c-5.37,0-7.36-1.68-7.36-6.73V68.8h15.56V54.6H597.28v-18l-17,3.68V54.6H569V68.8h11.25Zm-53,.32c0-3.68,3.69-5.47,9.26-5.47a43.12,43.12,0,0,1,10.1,1.26v7.15A21.51,21.51,0,0,1,536,99.19c-5.46,0-8.73-2.1-8.73-5.57m5.2,17.56c6,0,10.84-1.26,15.36-4.31v3.37h16.82V74.58c0-13.56-9.14-21-24.39-21-8.52,0-16.94,2-26,6.1l6.1,12.52c6.52-2.74,12-4.42,16.83-4.42,7,0,10.62,2.73,10.62,8.31v2.73a49.53,49.53,0,0,0-12.62-1.58c-14.31,0-22.93,6-22.93,16.73,0,9.78,7.78,17.24,20.19,17.24m-92.44-.94h18.09V81.42h30.29v28.82h18.09V36.62H488.43V64.91H458.14V36.62H440.05ZM371.12,82.37c0-8,6.31-14.1,14.62-14.1a17.22,17.22,0,0,1,11.78,4.32V92a16.36,16.36,0,0,1-11.78,4.42c-8.2,0-14.62-6.1-14.62-14.09m26.61,27.87h16.83V32.94l-17,3.68V57.55a28.3,28.3,0,0,0-14.2-3.68c-16.19,0-28.92,12.51-28.92,28.5A28.25,28.25,0,0,0,382.8,111a25.12,25.12,0,0,0,14.93-4.83Zm-77.19-42.7c5.36,0,9.88,3.47,11.67,8.83H309c1.68-5.57,5.89-8.83,11.57-8.83M291.83,82.47c0,16.2,13.25,28.82,30.28,28.82,9.36,0,16.2-2.53,23.25-8.42l-11.26-10c-2.63,2.74-6.52,4.21-11.14,4.21a14.39,14.39,0,0,1-13.68-8.83h39.65V84.05c0-17.67-11.88-30.39-28.08-30.39a28.57,28.57,0,0,0-29,28.81M262.49,52.08c6,0,9.36,3.78,9.36,8.31s-3.37,8.31-9.36,8.31H244.61V52.08Zm-36,58.16h18.09V83.42h13.77l13.89,26.82h20.19l-16.2-29.45a22.27,22.27,0,0,0,13.88-20.72c0-13.25-10.41-23.45-26-23.45H226.52Z"/></svg>